<?xml version="1.0" encoding="UTF-8" standalone="no"?><!DOCTYPE svg PUBLIC "-//W3C//DTD SVG 1.1//EN" "http://www.w3.org/Graphics/SVG/1.1/DTD/svg11.dtd"><svg width="100%" height="100%" viewBox="0 0 64 64" version="1.1" xmlns="http://www.w3.org/2000/svg" xmlns:xlink="http://www.w3.org/1999/xlink" xml:space="preserve" xmlns:serif="http://www.serif.com/" style="fill-rule:evenodd;clip-rule:evenodd;stroke-linejoin:round;stroke-miterlimit:2;"><g><path d="M64,8c0,-4.415 -3.585,-8 -8,-8l-48,0c-4.415,0 -8,3.585 -8,8l0,48c0,4.415 3.585,8 8,8l48,0c4.415,0 8,-3.585 8,-8l0,-48Z" style="fill:#015653;"/><path d="M18.907,19.413l4.622,17.316l5.689,-17.316l5.547,0l5.689,17.316l4.622,-17.316l7.289,0l-8,26.809l-7.111,0l-5.263,-15.538l-5.262,15.538l-7.111,0l-8,-26.809l7.289,0Z" style="fill:#fff;fill-rule:nonzero;"/></g></svg>